<?xml version="1.0" encoding="UTF-8" standalone="no"?><!DOCTYPE svg PUBLIC "-//W3C//DTD SVG 1.1//EN" "http://www.w3.org/Graphics/SVG/1.1/DTD/svg11.dtd"><svg width="100%" height="100%" viewBox="0 0 3521 3521" version="1.1" xmlns="http://www.w3.org/2000/svg" xmlns:xlink="http://www.w3.org/1999/xlink" xml:space="preserve" xmlns:serif="http://www.serif.com/" style="fill-rule:evenodd;clip-rule:evenodd;stroke-linejoin:round;stroke-miterlimit:2;"><path d="M512.5,75c70.519,-0.564 140.91,1.081 211.389,3.249c16.069,0.491 32.138,0.966 48.208,1.444c31.814,0.948 63.627,1.912 95.44,2.881c26.204,0.798 52.408,1.591 78.612,2.38c91.293,2.75 182.585,5.523 273.877,8.311c63.602,1.942 127.204,3.876 190.806,5.806c100.798,3.059 201.596,6.133 302.393,9.226c10.559,0.324 21.118,0.648 31.677,0.972c5.209,0.16 10.418,0.32 15.784,0.484c36.46,1.118 72.92,2.229 109.38,3.338c44.97,1.367 89.94,2.746 134.909,4.138c23.092,0.714 46.185,1.425 69.278,2.122c96.527,2.917 192.992,6.315 289.442,11.196c53.241,2.691 106.441,4.45 159.744,5.39c8.035,0.161 16.07,0.323 24.105,0.488c18.874,0.383 37.749,0.738 56.624,1.074l0,8.333c2.702,-0.037 5.404,-0.074 8.187,-0.112c28.186,-0.369 56.372,-0.62 84.561,-0.803c10.512,-0.084 21.024,-0.197 31.535,-0.342c15.132,-0.203 30.262,-0.297 45.395,-0.37c4.68,-0.086 9.36,-0.172 14.182,-0.261c27.123,-0.008 44.496,1.595 66.141,18.555c13.982,17.793 14.218,34.317 13.919,56.092c0.002,3.498 0.004,6.996 0.006,10.6c-0.009,11.521 -0.106,23.04 -0.204,34.561c-0.023,8.004 -0.041,16.008 -0.054,24.012c-0.048,21.036 -0.17,42.072 -0.309,63.108c-0.128,21.478 -0.185,42.956 -0.248,64.434c-0.134,42.12 -0.347,84.24 -0.61,126.359c2.284,-0.046 4.568,-0.093 6.922,-0.14c23.861,-0.462 47.72,-0.776 71.585,-1.004c8.895,-0.105 17.79,-0.246 26.685,-0.427c12.816,-0.254 25.627,-0.371 38.445,-0.463c3.951,-0.108 7.902,-0.215 11.972,-0.326c22.241,-0.009 36.893,2.679 55,15.86c18.773,22.724 20.369,46.49 20.132,74.68c0.027,5.66 0.027,5.66 0.055,11.434c0.046,12.661 0.002,25.32 -0.041,37.981c0.014,9.162 0.034,18.324 0.059,27.486c0.052,25.191 0.026,50.381 -0.012,75.572c-0.025,24.373 0.008,48.745 0.039,73.118c0.066,52.929 0.06,105.858 0.024,158.788c-0.031,46.322 -0.04,92.643 -0.025,138.965c0.001,4.608 0.001,4.608 0.003,9.309c0.004,12.47 0.008,24.94 0.012,37.41c0.038,116.997 0.004,233.994 -0.064,350.99c-0.059,103.948 -0.054,207.897 0.006,311.845c0.067,116.776 0.093,233.552 0.055,350.327c-0.004,12.449 -0.008,24.898 -0.012,37.346c-0.001,4.598 -0.001,4.598 -0.003,9.289c-0.014,46.29 0.002,92.58 0.034,138.87c0.036,52.637 0.027,105.273 -0.041,157.91c-0.033,26.865 -0.046,53.729 -0.004,80.593c0.037,24.583 0.017,49.166 -0.05,73.749c-0.014,8.902 -0.007,17.804 0.023,26.707c0.038,12.087 -0.001,24.172 -0.059,36.26c0.029,3.467 0.059,6.934 0.089,10.506c-0.257,26.707 -5.249,49.435 -21.453,71.427c-23.895,17.257 -51.408,16.249 -79.671,15.918c-5.765,-0.018 -5.765,-0.018 -11.646,-0.036c-12.183,-0.046 -24.365,-0.151 -36.548,-0.257c-8.298,-0.042 -16.596,-0.08 -24.894,-0.114c-20.261,-0.092 -40.522,-0.235 -60.783,-0.407c0.046,3.998 0.093,7.995 0.14,12.114c0.423,37.761 0.735,75.521 0.939,113.283c0.109,19.412 0.256,38.822 0.492,58.233c0.227,18.749 0.351,37.497 0.405,56.248c0.038,7.137 0.113,14.273 0.226,21.409c1.024,67.437 1.024,67.437 -17.33,91.555c-23.453,22.57 -56.379,18.907 -86.871,19.862c-4.355,0.15 -8.711,0.3 -13.198,0.454c-9.466,0.323 -18.933,0.639 -28.399,0.948c-15.173,0.495 -30.345,1.01 -45.517,1.531c-32.448,1.108 -64.897,2.19 -97.346,3.27c-42.253,1.411 -84.506,2.836 -126.758,4.281c-5.22,0.178 -10.44,0.356 -15.819,0.539c-63.993,2.194 -127.948,4.744 -191.896,7.989c-99.74,5.047 -199.547,7.893 -299.366,10.916c-57.613,1.747 -115.224,3.557 -172.835,5.392c-2.899,0.092 -5.797,0.185 -8.784,0.28c-115.011,3.666 -229.988,8.034 -344.96,12.79c-33.572,1.388 -67.144,2.774 -100.716,4.15c-4.07,0.167 -8.14,0.334 -12.334,0.506c-110.097,4.501 -220.223,8.114 -330.352,11.707c-14.862,0.486 -29.724,0.972 -44.586,1.459c-3.578,0.117 -7.155,0.234 -10.842,0.355c-60.345,1.979 -120.67,4.31 -180.996,6.794c-61.417,2.521 -122.761,4.692 -184.236,4.717c-5.272,0.004 -10.545,0.007 -15.977,0.011c-34.452,-0.226 -34.452,-0.226 -43.919,-4.959l0,-3229.167l20.833,0l0,-12.5Zm95.833,33.333l0,412.5c64.433,-5.989 64.433,-5.989 128.538,-13.448c56.487,-7.271 111.95,-9.166 168.841,-8.655c9.798,0.044 19.595,0.088 29.393,0.129c127.791,0.761 255.551,4.543 383.289,8.076c39.855,1.101 79.711,2.156 119.567,3.211c14.567,0.386 29.133,0.772 43.7,1.158c3.581,0.095 7.161,0.19 10.85,0.287c24.972,0.662 49.944,1.329 74.915,1.999c107.967,2.894 215.938,5.544 323.917,7.947c20.252,0.451 40.504,0.905 60.755,1.362c3.38,0.076 6.76,0.152 10.243,0.231c62.374,1.411 124.742,3.045 187.11,4.702c50.269,1.333 100.538,2.643 150.808,3.938c5.494,0.142 10.988,0.283 16.649,0.429c173.562,4.452 346.974,7.249 520.59,5.3c0.193,-44.332 0.341,-88.664 0.432,-132.996c0.044,-20.584 0.103,-41.168 0.197,-61.752c0.09,-19.857 0.14,-39.714 0.162,-59.571c0.015,-7.584 0.046,-15.168 0.09,-22.751c0.06,-10.605 0.069,-21.209 0.065,-31.814c0.03,-3.15 0.06,-6.3 0.091,-9.545c-0.062,-15.611 -0.479,-22.401 -9.37,-35.738c-24.852,-5.584 -50.609,-5.364 -75.99,-6.222c-7.035,-0.256 -7.035,-0.256 -14.212,-0.518c-15.706,-0.568 -31.412,-1.114 -47.119,-1.659c-11.26,-0.401 -22.52,-0.806 -33.78,-1.211c-27.494,-0.986 -54.989,-1.954 -82.484,-2.917c-22.662,-0.794 -45.323,-1.594 -67.984,-2.398c-4.881,-0.173 -4.881,-0.173 -9.861,-0.35c-6.616,-0.235 -13.232,-0.47 -19.849,-0.705c-75.542,-2.68 -151.086,-5.325 -226.629,-7.96c-23.063,-0.804 -46.125,-1.611 -69.188,-2.418c-329.413,-11.527 -658.842,-22.493 -988.292,-32.918c-19.466,-0.616 -38.932,-1.234 -58.398,-1.851c-15.74,-0.499 -31.48,-0.997 -47.22,-1.493c-61.949,-1.952 -123.895,-3.946 -185.833,-6.195c-8.326,-0.302 -16.651,-0.601 -24.977,-0.901c-29.384,-1.057 -58.766,-2.138 -88.146,-3.282c-60.484,-2.072 -120.183,-2.003 -180.871,-2.003Zm-87.5,12.5l0,3154.167c26.835,5.963 44.537,9.29 70.833,8.333c0.024,-4.685 0.049,-9.371 0.074,-14.198c0.239,-44.201 0.542,-88.402 0.908,-132.602c0.186,-22.723 0.35,-45.445 0.461,-68.168c0.109,-21.938 0.277,-43.874 0.486,-65.812c0.069,-8.361 0.117,-16.721 0.143,-25.082c0.04,-11.73 0.157,-23.457 0.292,-35.186c-0.006,-3.441 -0.012,-6.881 -0.018,-10.426c0.355,-21.934 4.444,-37.225 14.32,-56.858c48.746,1.375 96.208,7.381 144.349,15.116c4.626,0.732 9.251,1.464 14.017,2.218c4.11,0.672 8.219,1.343 12.453,2.036c13.808,1.615 27.779,1.464 41.681,1.464l0,-2370.833c-43.948,2.93 -87.048,6.75 -130.615,12.427c-65.569,8.067 -65.569,8.067 -94.385,4.24c-8.516,-12.774 -9.385,-15.418 -9.494,-29.821c-0.047,-3.523 -0.093,-7.046 -0.141,-10.676c-0.014,-5.777 -0.014,-5.777 -0.027,-11.67c-0.063,-6.099 -0.063,-6.099 -0.127,-12.321c-0.129,-13.459 -0.2,-26.918 -0.27,-40.378c-0.078,-9.324 -0.159,-18.648 -0.245,-27.972c-0.214,-24.557 -0.379,-49.114 -0.534,-73.671c-0.167,-25.052 -0.38,-50.104 -0.589,-75.156c-0.404,-49.167 -0.755,-98.334 -1.074,-147.502c-23.714,-0.988 -38.211,2.261 -62.5,8.333Zm329.167,404.167c-3.259,11.545 -4.688,21.782 -4.689,33.764c-0.01,3.397 -0.021,6.794 -0.032,10.293c0.01,3.716 0.02,7.432 0.03,11.261c-0.006,3.976 -0.012,7.952 -0.018,12.049c-0.015,13.426 -0.001,26.851 0.014,40.277c-0.005,9.682 -0.011,19.363 -0.02,29.045c-0.016,23.883 -0.012,47.765 0,71.648c0.013,28.599 0.002,57.197 -0.009,85.796c-0.022,56.035 -0.02,112.07 -0.008,168.105c0.01,49.034 0.013,98.068 0.008,147.101c-0,3.249 -0.001,6.498 -0.001,9.846c-0.001,13.189 -0.003,26.377 -0.004,39.566c-0.013,123.781 -0.001,247.562 0.021,371.343c0.02,110.044 0.018,220.088 -0.002,330.132c-0.022,123.557 -0.031,247.114 -0.018,370.671c0.001,13.164 0.003,26.327 0.004,39.491c0,3.241 0.001,6.483 0.001,9.822c0.005,49.014 -0.001,98.027 -0.011,147.041c-0.012,55.71 -0.009,111.42 0.014,167.131c0.011,28.448 0.016,56.896 0.001,85.345c-0.012,26.006 -0.006,52.012 0.017,78.018c0.005,9.443 0.002,18.887 -0.008,28.33c-0.013,12.767 0,25.533 0.02,38.3c-0.01,3.726 -0.02,7.452 -0.03,11.291c0.044,14.146 0.216,25.822 4.721,39.337c74.83,0.303 149.561,-0.378 224.365,-2.295c9.99,-0.246 19.98,-0.492 29.971,-0.737c26.485,-0.654 52.969,-1.33 79.453,-2.013c13.873,-0.357 27.746,-0.711 41.619,-1.062c134.614,-3.411 269.2,-7.193 403.759,-12.382c146.758,-5.649 293.545,-9.977 440.354,-14.054c18.945,-0.526 37.889,-1.057 56.834,-1.588c140.624,-3.937 281.252,-7.667 421.89,-11.054c25.846,-0.623 51.692,-1.257 77.537,-1.897c3.608,-0.089 7.216,-0.179 10.933,-0.271c14.464,-0.358 28.927,-0.717 43.391,-1.077c42.407,-1.055 84.815,-2.072 127.224,-3.024c26.487,-0.598 52.973,-1.237 79.459,-1.91c15.319,-0.387 30.637,-0.754 45.957,-1.068c16.643,-0.341 33.281,-0.775 49.922,-1.216c4.874,-0.085 9.747,-0.17 14.768,-0.257c4.46,-0.133 8.92,-0.267 13.515,-0.404c5.77,-0.135 5.77,-0.135 11.656,-0.272c16.86,-2.754 27.968,-10.662 39.892,-22.585c0.823,-12.04 1.115,-23.682 1.049,-35.727c0.012,-3.761 0.024,-7.523 0.037,-11.398c0.031,-12.745 0.001,-25.489 -0.027,-38.234c0.01,-9.173 0.023,-18.346 0.039,-27.519c0.035,-25.318 0.018,-50.635 -0.008,-75.952c-0.017,-24.465 0.005,-48.93 0.026,-73.395c0.044,-53.154 0.04,-106.307 0.016,-159.461c-0.021,-46.52 -0.026,-93.04 -0.016,-139.56c0.001,-3.082 0.001,-6.163 0.002,-9.338c0.003,-12.508 0.005,-25.017 0.008,-37.525c0.026,-117.43 0.002,-234.861 -0.042,-352.291c-0.04,-104.392 -0.036,-208.785 0.004,-313.177c0.045,-117.198 0.062,-234.396 0.037,-351.595c-0.003,-12.489 -0.005,-24.977 -0.008,-37.466c-0.001,-3.075 -0.001,-6.15 -0.002,-9.319c-0.009,-46.492 0.002,-92.983 0.023,-139.475c0.024,-52.856 0.018,-105.711 -0.027,-158.567c-0.022,-26.989 -0.03,-53.978 -0.003,-80.966c0.025,-24.678 0.011,-49.356 -0.033,-74.034c-0.009,-8.956 -0.004,-17.912 0.016,-26.867c0.025,-12.12 -0,-24.238 -0.039,-36.357c0.02,-3.524 0.039,-7.047 0.059,-10.677c0.241,-22.845 0.241,-22.845 -9.441,-42.766c-21.481,-8.504 -41.894,-9.699 -64.64,-10.042c-3.472,-0.083 -6.943,-0.167 -10.52,-0.253c-11.603,-0.269 -23.206,-0.484 -34.809,-0.699c-8.371,-0.183 -16.742,-0.37 -25.113,-0.559c-22.839,-0.508 -45.68,-0.969 -68.52,-1.422c-24.246,-0.489 -48.49,-1.024 -72.735,-1.553c-41.344,-0.898 -82.689,-1.77 -124.034,-2.623c-64.547,-1.333 -129.092,-2.72 -193.637,-4.12c-10.721,-0.232 -21.442,-0.464 -32.163,-0.697c-16.001,-0.347 -32.002,-0.693 -48.002,-1.04c-31.789,-0.689 -63.577,-1.374 -95.366,-2.055c-148.677,-3.187 -297.344,-6.597 -446.003,-10.51c-23.088,-0.606 -46.177,-1.203 -69.265,-1.801c-27.021,-0.7 -54.042,-1.402 -81.063,-2.106c-103.656,-2.702 -207.313,-5.375 -310.973,-7.927c-28.255,-0.696 -56.509,-1.402 -84.762,-2.135c-147.555,-3.823 -294.957,-5.395 -442.56,-4.624Zm1486.074,2358.306c-27.935,0.842 -55.87,1.671 -83.805,2.491c-4.013,0.118 -8.027,0.236 -12.162,0.357c-8.133,0.239 -16.266,0.477 -24.4,0.716c-192.156,5.642 -384.305,11.529 -576.449,17.558c-16.584,0.52 -33.168,1.04 -49.753,1.559c-31.631,0.991 -63.262,1.985 -94.893,2.982c-4.943,0.156 -9.886,0.311 -14.979,0.472c-50.938,1.606 -101.876,3.234 -152.811,4.931c-123.573,4.114 -247.108,7.289 -370.754,7.727c-8.689,0.037 -17.377,0.096 -26.066,0.16c-88.365,0.546 -174.057,-6.455 -261.204,-20.841c-14.764,-1.998 -28.928,-1.999 -43.799,-1.416c-6.82,13.639 -4.704,28.718 -4.64,43.703c-0.001,3.659 -0.001,7.318 -0.002,11.087c0.003,12.129 0.035,24.259 0.068,36.388c0.008,8.396 0.014,16.791 0.018,25.187c0.016,22.125 0.057,44.251 0.103,66.376c0.043,22.566 0.062,45.132 0.083,67.698c0.045,44.298 0.116,88.596 0.203,132.894c134.556,1.703 268.837,-2.807 403.277,-7.816c22.089,-0.822 44.179,-1.629 66.27,-2.427c212.356,-7.675 424.684,-16.042 637.008,-24.552c226.794,-9.089 453.603,-17.195 680.46,-24.561c70.312,-2.284 140.624,-4.584 210.933,-6.965c10.515,-0.355 21.03,-0.706 31.545,-1.054c27.887,-0.924 55.768,-1.926 83.649,-3.033c10.945,-0.393 21.884,-0.65 32.833,-0.867c5.999,-0.192 11.998,-0.388 17.996,-0.587c4.944,-0.109 9.888,-0.218 14.981,-0.331c17.127,-3.78 23.288,-9.515 33.548,-23.64c1.963,-11.261 2.66,-19.848 2.365,-31.052c0.005,-4.577 0.005,-4.577 0.009,-9.246c-0.014,-10.035 -0.176,-20.063 -0.34,-30.097c-0.039,-6.977 -0.069,-13.953 -0.089,-20.93c-0.079,-18.325 -0.284,-36.646 -0.515,-54.97c-0.213,-18.713 -0.308,-37.426 -0.413,-56.14c-0.223,-36.69 -0.579,-73.378 -1.017,-110.067c-165.859,-2.026 -331.499,3.304 -497.259,8.306Z" style="fill:#0a0b0a;fill-rule:nonzero;stroke:#000;stroke-width:50px;"/><path d="M973.859,586.988c4.881,-0.004 4.881,-0.004 9.861,-0.008c10.769,0 21.538,0.034 32.308,0.072c5.589,0.01 5.589,0.01 11.29,0.021c75.573,0.143 151.101,1.45 226.652,3.183c18.243,0.414 36.486,0.806 54.729,1.202c31.457,0.684 62.913,1.381 94.369,2.087c45.803,1.028 91.606,2.032 137.41,3.031c74.801,1.632 149.601,3.278 224.401,4.936c4.45,0.099 8.9,0.197 13.485,0.299c18.011,0.399 36.023,0.798 54.034,1.197c49.28,1.092 98.561,2.181 147.841,3.269c6.606,0.146 6.606,0.146 13.345,0.295c74.418,1.642 148.836,3.275 223.254,4.901c41.474,0.907 82.948,1.82 124.421,2.746c42.774,0.956 85.548,1.9 128.323,2.834c11.181,0.245 22.362,0.491 33.543,0.738c79.677,1.752 159.348,3.241 239.039,4.152c7.102,0.084 14.203,0.168 21.305,0.252c30.067,0.351 60.134,0.683 90.202,0.909c11.983,0.097 23.965,0.224 35.947,0.359c8.087,0.08 16.173,0.118 24.26,0.154c62.821,0.755 62.821,0.755 85.86,19.873c14.585,18.121 13.358,34.823 13.308,57.04c0.009,3.509 0.017,7.018 0.026,10.634c0.024,11.862 0.018,23.724 0.012,35.586c0.011,8.549 0.023,17.098 0.038,25.647c0.034,23.574 0.041,47.147 0.044,70.721c0.008,25.393 0.039,50.785 0.067,76.178c0.06,58.459 0.084,116.918 0.103,175.378c0.01,28.88 0.025,57.761 0.04,86.641c0.053,98.836 0.098,197.672 0.113,296.508c0.001,6.206 0.002,12.412 0.003,18.617c0.001,6.221 0.002,12.442 0.003,18.663c0.002,12.481 0.004,24.961 0.006,37.442c0.001,4.642 0.001,4.642 0.001,9.377c0.015,100.354 0.081,200.708 0.179,301.062c0.102,106.069 0.16,212.137 0.165,318.206c0.001,11.64 0.002,23.281 0.003,34.921c0,2.866 0,5.732 0.001,8.686c0.005,46.156 0.051,92.312 0.111,138.468c0.06,46.38 0.072,92.76 0.04,139.141c-0.016,25.134 -0.012,50.268 0.046,75.402c0.053,22.998 0.048,45.995 -0.002,68.993c-0.008,8.331 0.005,16.661 0.041,24.992c0.046,11.307 0.015,22.611 -0.035,33.918c0.032,3.249 0.063,6.498 0.096,9.845c-0.205,21.372 -4.122,36.299 -14.146,55.282c-32.539,25.689 -91.293,17.279 -131.226,18.057c-76.69,1.523 -153.353,3.635 -230.02,6.037c-104.61,3.273 -209.226,6.253 -313.851,8.981c-9.907,0.258 -19.814,0.518 -29.721,0.777c-56.876,1.488 -113.751,2.968 -170.628,4.429c-43.368,1.114 -86.737,2.239 -130.104,3.385c-3.231,0.085 -6.463,0.171 -9.792,0.259c-99.866,2.644 -199.687,5.975 -299.512,9.916c-6.307,0.249 -6.307,0.249 -12.741,0.503c-6.146,0.242 -6.146,0.242 -12.416,0.49c-57.479,2.243 -114.976,3.795 -172.479,5.271c-15.618,0.403 -31.235,0.821 -46.852,1.236c-19.709,0.523 -39.418,1.045 -59.127,1.56c-45.427,1.188 -90.853,2.42 -136.278,3.676c-21.391,0.59 -42.782,1.175 -64.173,1.759c-17.08,0.467 -34.16,0.936 -51.24,1.413c-15.99,0.446 -31.98,0.882 -47.97,1.311c-5.81,0.158 -11.62,0.318 -17.43,0.483c-13.271,0.375 -26.54,0.702 -39.814,0.958c-11.784,0.24 -23.542,0.588 -35.319,1.011c-6.375,0.157 -12.749,0.309 -19.124,0.458c-2.955,0.134 -5.909,0.268 -8.953,0.406c-14.916,0.244 -22.976,-1.063 -35.667,-9.166c-18.204,-18.508 -18.425,-32.599 -18.312,-57.305c-0.016,-3.714 -0.032,-7.429 -0.048,-11.256c-0.043,-12.56 -0.027,-25.12 -0.011,-37.68c-0.019,-9.05 -0.041,-18.101 -0.066,-27.151c-0.059,-24.96 -0.066,-49.919 -0.064,-74.878c-0.007,-26.884 -0.061,-53.767 -0.109,-80.651c-0.092,-55.76 -0.126,-111.521 -0.146,-167.282c-0.001,-3.032 -0.002,-6.064 -0.003,-9.188c-0.001,-3.038 -0.002,-6.076 -0.003,-9.206c-0.013,-33.637 -0.04,-67.273 -0.068,-100.91c-0.082,-101.558 -0.15,-203.115 -0.162,-304.673c-0,-3.25 -0.001,-6.499 -0.001,-9.847c-0.002,-13.17 -0.003,-26.34 -0.005,-39.51c-0.001,-9.913 -0.002,-19.826 -0.003,-29.739c-0,-3.276 -0.001,-6.551 -0.001,-9.926c-0.012,-102.939 -0.104,-205.877 -0.255,-308.816c-0.17,-115.588 -0.268,-231.177 -0.27,-346.765c-0,-12.32 -0.001,-24.64 -0.002,-36.961c-0,-3.034 -0,-6.067 -0.001,-9.193c-0.005,-48.869 -0.077,-97.737 -0.174,-146.606c-0.095,-49.097 -0.111,-98.193 -0.052,-147.29c0.03,-26.611 0.026,-53.22 -0.068,-79.83c-0.085,-24.342 -0.075,-48.683 0.012,-73.025c0.015,-8.824 -0.006,-17.648 -0.065,-26.472c-0.075,-11.964 -0.023,-23.921 0.062,-35.884c-0.052,-3.454 -0.105,-6.907 -0.159,-10.466c0.26,-17.02 1.812,-27.866 12.542,-41.442c17.436,-16.474 33.007,-15.194 55.729,-15.106Zm-44.692,33.845c-1.668,12.345 -2.244,23.155 -2.109,35.513c-0.025,3.687 -0.051,7.375 -0.077,11.174c-0.065,12.47 -0.011,24.936 0.042,37.406c-0.022,8.985 -0.052,17.969 -0.088,26.954c-0.078,24.778 -0.051,49.555 -0.008,74.332c0.029,26.688 -0.037,53.375 -0.092,80.063c-0.085,49.291 -0.094,98.582 -0.062,147.873c0.029,45.536 0.03,91.072 0.001,136.607c-0.004,6.101 -0.008,12.203 -0.011,18.304c-0.006,9.193 -0.012,18.387 -0.017,27.58c-0.054,85.509 -0.075,171.017 -0.027,256.526c0.002,3.225 0.004,6.451 0.006,9.774c0.015,26.195 0.031,52.391 0.047,78.586c0.062,102.183 0.025,204.366 -0.091,306.55c-0.131,114.735 -0.193,229.471 -0.151,344.206c0.004,12.228 0.008,24.455 0.012,36.683c0.001,3.011 0.002,6.022 0.003,9.124c0.014,45.506 -0.025,91.013 -0.09,136.519c-0.074,51.739 -0.073,103.478 0.022,155.218c0.047,26.416 0.059,52.831 -0.018,79.247c-0.07,24.16 -0.044,48.317 0.059,72.477c0.02,8.762 0.005,17.525 -0.048,26.287c-0.067,11.871 -0.007,23.734 0.086,35.604c-0.05,3.438 -0.1,6.876 -0.151,10.418c0.287,17.805 1.21,24.213 12.78,38.607c23.848,18.456 54.772,18.208 83.992,18.005c5.111,-0.013 5.111,-0.013 10.325,-0.025c36.361,-0.548 72.501,-3.872 108.685,-7.266c3.009,-0.28 6.018,-0.561 9.119,-0.85c31.58,-1.343 31.58,-1.343 61.194,-9.827c10.362,-0.938 20.628,-1.627 31.014,-2.136c3.301,-0.171 6.601,-0.342 10.002,-0.519c43.367,-2.13 86.771,-3.24 130.173,-4.405c16.52,-0.443 33.04,-0.899 49.56,-1.359c24.143,-0.67 48.287,-1.335 72.43,-1.995c65.849,-1.803 131.697,-3.649 197.544,-5.504c3.441,-0.097 6.883,-0.194 10.429,-0.293c113.131,-3.185 226.255,-6.554 339.376,-10.058c3.694,-0.114 7.389,-0.229 11.195,-0.347c72.497,-2.245 144.993,-4.508 217.489,-6.792c33.623,-1.059 67.246,-2.114 100.869,-3.164c6.581,-0.206 13.162,-0.411 19.743,-0.617c77.92,-2.437 155.842,-4.743 233.773,-6.801c3.554,-0.094 7.109,-0.188 10.771,-0.285c34.29,-0.905 68.58,-1.797 102.871,-2.66c37.59,-0.947 75.177,-1.956 112.762,-3.065c4.947,-0.144 9.894,-0.287 14.99,-0.435c13.42,-0.41 26.836,-0.875 40.253,-1.365c5.726,-0.171 5.726,-0.171 11.568,-0.346c31.433,-0.438 31.433,-0.438 58.189,-14.52c0.424,-10.993 0.572,-21.877 0.548,-32.872c0.009,-3.503 0.017,-7.006 0.026,-10.616c0.024,-11.892 0.018,-23.784 0.012,-35.676c0.011,-8.551 0.023,-17.101 0.038,-25.652c0.034,-23.617 0.041,-47.233 0.044,-70.85c0.008,-25.424 0.039,-50.847 0.067,-76.271c0.06,-58.55 0.084,-117.1 0.103,-175.651c0.01,-28.916 0.025,-57.832 0.04,-86.747c0.053,-98.928 0.098,-197.855 0.113,-296.783c0.001,-6.214 0.002,-12.427 0.003,-18.641c0.001,-6.229 0.002,-12.458 0.003,-18.686c0.002,-12.497 0.004,-24.993 0.006,-37.49c0,-3.098 0.001,-6.197 0.001,-9.389c0.015,-100.497 0.081,-200.994 0.179,-301.491c0.102,-106.181 0.16,-212.362 0.165,-318.544c0.001,-11.648 0.002,-23.297 0.003,-34.945c0,-4.302 0,-4.302 0.001,-8.692c0.005,-46.229 0.051,-92.457 0.111,-138.686c0.06,-46.437 0.072,-92.874 0.04,-139.311c-0.016,-25.175 -0.012,-50.349 0.046,-75.523c0.053,-23.021 0.048,-46.041 -0.002,-69.061c-0.008,-8.353 0.005,-16.706 0.041,-25.059c0.046,-11.307 0.015,-22.612 -0.035,-33.919c0.032,-3.284 0.063,-6.568 0.096,-9.952c-0.131,-13.508 -0.751,-22.919 -7.493,-34.787c-11.988,-11.483 -25.224,-11.057 -41.158,-11.329c-5.305,-0.105 -5.305,-0.105 -10.717,-0.212c-3.848,-0.056 -7.696,-0.113 -11.661,-0.171c-4.082,-0.075 -8.163,-0.15 -12.369,-0.228c-13.537,-0.245 -27.074,-0.464 -40.612,-0.684c-9.472,-0.169 -18.944,-0.34 -28.416,-0.513c-25.022,-0.453 -50.043,-0.885 -75.065,-1.31c-39.776,-0.677 -79.552,-1.374 -119.328,-2.092c-13.767,-0.244 -27.533,-0.472 -41.3,-0.699c-40.219,-0.696 -80.373,-1.685 -120.55,-3.68c-54.162,-2.675 -108.35,-3.637 -162.564,-4.658c-14.999,-0.286 -29.998,-0.587 -44.997,-0.886c-25.709,-0.512 -51.418,-1.019 -77.127,-1.521c-67.993,-1.33 -135.985,-2.709 -203.976,-4.106c-3.428,-0.07 -6.856,-0.141 -10.389,-0.213c-159.189,-3.272 -318.355,-7.276 -477.52,-11.56c-226.112,-6.553 -226.112,-6.553 -452.291,-9.344c-8.681,-0.028 -17.361,-0.087 -26.042,-0.171c-13.093,-0.126 -26.183,-0.171 -39.276,-0.195c-5.805,-0.077 -5.805,-0.077 -11.727,-0.156c-3.551,0.013 -7.102,0.025 -10.761,0.038c-3.086,-0.015 -6.172,-0.03 -9.351,-0.046c-12.114,2.151 -16.746,5.004 -25.29,14.031Z" style="fill:#161616;fill-rule:nonzero;"/><path d="M1246.889,832.725c6.094,-0.015 6.094,-0.015 12.311,-0.031c13.763,-0.021 27.525,-0.004 41.288,0.02c7.255,0.005 7.255,0.005 14.657,0.01c127.989,0.142 255.928,2.969 383.883,5.69c63.404,1.345 126.81,2.613 190.216,3.882c10.792,0.216 21.584,0.433 32.375,0.65c102.501,2.057 205.004,3.876 307.514,5.425c3.134,0.047 6.269,0.095 9.498,0.144c62.505,0.945 125.011,1.848 187.518,2.723c59.342,0.832 118.682,1.72 178.021,2.721c12.035,0.199 24.071,0.384 36.107,0.566c17.223,0.267 34.443,0.594 51.663,0.979c5.943,0.125 11.887,0.23 17.831,0.313c7.877,0.114 15.752,0.31 23.627,0.511c4.266,0.086 8.532,0.172 12.927,0.26c15.168,2.203 30.086,7.322 41.174,18.41c0.414,6.127 0.538,12.274 0.548,18.414c0.016,4.001 0.032,8.003 0.048,12.125c-0.004,4.448 -0.007,8.896 -0.011,13.48c0.019,7.027 0.019,7.027 0.038,14.197c0.036,15.831 0.042,31.662 0.049,47.493c0.017,11.297 0.04,22.593 0.063,33.89c0.057,30.785 0.082,61.571 0.1,92.356c0.011,19.213 0.029,38.426 0.048,57.639c0.051,53.165 0.094,106.329 0.108,159.494c0.001,3.405 0.002,6.811 0.003,10.319c0.001,3.414 0.002,6.827 0.003,10.344c0.002,6.918 0.004,13.835 0.006,20.753c0.001,3.431 0.002,6.863 0.003,10.398c0.016,55.598 0.089,111.196 0.186,166.793c0.099,57.042 0.151,114.085 0.156,171.127c0.004,32.043 0.028,64.085 0.103,96.128c0.064,27.288 0.086,54.575 0.051,81.863c-0.016,13.927 -0.006,27.852 0.046,41.779c0.053,15.092 0.029,30.182 -0.015,45.273c0.05,6.617 0.05,6.617 0.102,13.367c-0.257,37.808 -0.257,37.808 -14.133,53.602c-25.64,11.338 -53.076,9.713 -80.702,9.912c-5.213,0.069 -10.425,0.139 -15.796,0.21c-14.482,0.191 -28.964,0.332 -43.447,0.465c-15.779,0.154 -31.557,0.354 -47.336,0.548c-31.216,0.376 -62.432,0.709 -93.649,1.026c-25.567,0.261 -51.135,0.537 -76.702,0.824c-3.657,0.041 -7.314,0.082 -11.081,0.125c-7.455,0.084 -14.909,0.168 -22.364,0.252c-63.71,0.716 -127.42,1.396 -191.13,2.058c-82.04,0.853 -164.08,1.769 -246.119,2.727c-82.365,0.961 -164.729,1.891 -247.095,2.788c-9.533,0.104 -19.065,0.208 -28.598,0.312c-4.702,0.051 -9.404,0.103 -14.248,0.155c-33.234,0.365 -66.469,0.75 -99.703,1.143c-40.752,0.481 -81.505,0.932 -122.258,1.343c-20.97,0.213 -41.94,0.439 -62.909,0.704c-19.31,0.243 -38.62,0.446 -57.931,0.617c-7.011,0.069 -14.021,0.153 -21.032,0.253c-9.541,0.134 -19.08,0.214 -28.622,0.281c-7.963,0.087 -7.963,0.087 -16.087,0.177c-16.299,-1.008 -28.946,-2.871 -44.026,-9.252c-16.941,-21.31 -14.236,-46.867 -14.059,-72.818c-0.017,-4.842 -0.033,-9.684 -0.05,-14.672c-0.033,-13.404 -0.01,-26.806 0.036,-40.21c0.037,-14.468 0.002,-28.937 -0.024,-43.405c-0.04,-28.327 -0.012,-56.654 0.039,-84.981c0.057,-32.982 0.05,-65.963 0.041,-98.945c-0.013,-58.838 0.035,-117.676 0.117,-176.515c0.079,-57.11 0.109,-114.22 0.085,-171.33c-0.025,-62.184 -0.025,-124.368 0.023,-186.552c0.005,-6.628 0.01,-13.256 0.015,-19.884c0.003,-3.261 0.005,-6.522 0.008,-9.882c0.016,-22.998 0.015,-45.996 0.007,-68.994c-0.009,-28.015 0.013,-56.029 0.073,-84.044c0.03,-14.297 0.047,-28.594 0.028,-42.892c-0.013,-15.484 0.024,-30.967 0.075,-46.451c-0.016,-4.539 -0.031,-9.077 -0.048,-13.754c0.024,-4.14 0.049,-8.28 0.074,-12.545c0.004,-3.575 0.007,-7.15 0.011,-10.833c1.156,-10.606 3.702,-17.303 9.383,-26.295c14.4,-7.2 31.04,-4.788 46.889,-4.775Zm-30.223,29.775c-3.641,12.562 -4.688,23.735 -4.691,36.796c-0.011,4.066 -0.022,8.131 -0.033,12.32c0.009,4.456 0.019,8.911 0.028,13.502c-0.006,4.741 -0.013,9.483 -0.02,14.368c-0.017,15.946 -0.003,31.892 0.01,47.838c-0.003,11.408 -0.013,22.815 -0.022,34.223c-0.019,27.8 -0.015,55.6 -0.002,83.401c0.009,22.583 0.011,45.166 0.006,67.749c-0.001,3.211 -0.001,6.423 -0.002,9.731c-0.001,6.523 -0.003,13.046 -0.004,19.569c-0.012,61.186 0.002,122.371 0.024,183.557c0.019,52.551 0.015,105.103 -0.004,157.654c-0.022,60.983 -0.031,121.965 -0.018,182.948c0.001,6.496 0.003,12.991 0.004,19.487c0.001,3.196 0.001,6.393 0.002,9.686c0.004,22.574 -0.002,45.148 -0.012,67.722c-0.012,27.483 -0.009,54.966 0.014,82.449c0.011,14.034 0.013,28.068 0.001,42.102c-0.011,15.178 0.003,30.357 0.024,45.535c-0.009,4.484 -0.019,8.967 -0.028,13.586c0.011,4.033 0.022,8.066 0.033,12.221c0.001,3.508 0.001,7.016 0.002,10.631c-0.349,7.969 -0.349,7.969 4.689,12.092c11.192,0.446 22.277,0.612 33.473,0.605c3.601,0.014 7.203,0.028 10.913,0.042c12.38,0.04 24.761,0.047 37.141,0.053c9.113,0.017 18.227,0.034 27.34,0.052c25.678,0.04 51.355,0.043 77.033,0.035c16.437,-0.005 32.874,-0.003 49.311,0c249.173,0.006 498.336,-2.211 747.498,-4.412c26.575,-0.235 53.15,-0.464 79.726,-0.693c56.182,-0.484 112.363,-0.989 168.545,-1.517c18.983,-0.178 37.967,-0.349 56.95,-0.514c22.183,-0.193 44.365,-0.403 66.547,-0.626c8.018,-0.078 16.037,-0.15 24.055,-0.216c41.462,-0.346 82.89,-1.138 124.323,-2.781c5.651,-0.186 5.651,-0.186 11.416,-0.375c5.203,-0.233 5.203,-0.233 10.512,-0.47c4.599,-0.185 4.599,-0.185 9.292,-0.373c8.62,-0.735 8.62,-0.735 15.926,-9.642c1.256,-8.597 1.256,-8.597 1.037,-18.648c0.019,-3.947 0.038,-7.895 0.058,-11.962c-0.021,-4.366 -0.043,-8.733 -0.065,-13.232c0.015,-6.923 0.015,-6.923 0.03,-13.985c0.024,-15.569 -0.013,-31.138 -0.048,-46.707c0.004,-11.119 0.012,-22.238 0.024,-33.357c0.021,-27.127 -0.003,-54.255 -0.041,-81.382c-0.043,-31.561 -0.043,-63.121 -0.041,-94.682c0.002,-56.292 -0.036,-112.584 -0.097,-168.876c-0.059,-54.682 -0.088,-109.364 -0.085,-164.046c0,-5.052 0,-5.052 0.001,-10.207c0,-5.043 0,-5.043 0.001,-10.189c0.003,-62.172 -0.022,-124.344 -0.059,-186.515c-0.013,-22.025 -0.017,-44.05 -0.019,-66.075c-0.003,-26.82 -0.021,-53.64 -0.06,-80.459c-0.019,-13.696 -0.03,-27.393 -0.027,-41.089c0.002,-14.814 -0.021,-29.628 -0.052,-44.442c0.006,-4.376 0.013,-8.751 0.02,-13.26c-0.013,-3.936 -0.027,-7.873 -0.041,-11.929c-0.004,-5.136 -0.004,-5.136 -0.009,-10.376c0.322,-7.813 0.322,-7.813 -4.694,-11.915c-41.717,-6.055 -84.604,-5.245 -126.676,-5.957c-7.838,-0.145 -15.677,-0.292 -23.515,-0.44c-21.645,-0.405 -43.29,-0.79 -64.935,-1.171c-38.65,-0.684 -77.299,-1.398 -115.949,-2.106c-10.549,-0.193 -21.097,-0.385 -31.646,-0.576c-83.144,-1.508 -166.284,-3.174 -249.424,-4.919c-311.265,-6.531 -622.335,-12.19 -933.688,-9.83Z" style="fill:#0f1114;fill-rule:nonzero;"/><path d="M2783.333,1000l4.167,0c0.285,130.224 0.506,260.448 0.638,390.673c0.016,15.37 0.032,30.74 0.048,46.11c0.003,3.06 0.007,6.12 0.01,9.272c0.054,49.563 0.153,99.125 0.268,148.688c0.117,50.846 0.186,101.692 0.212,152.538c0.017,31.381 0.071,62.762 0.173,94.144c0.074,24.053 0.082,48.105 0.065,72.158c0.003,9.875 0.028,19.75 0.076,29.625c0.062,13.459 0.047,26.916 0.013,40.375c0.036,3.928 0.073,7.855 0.11,11.902c-0.138,20.033 -0.573,34.364 -14.114,50.35c-25.64,11.338 -53.076,9.713 -80.702,9.912c-5.213,0.069 -10.425,0.139 -15.796,0.21c-14.482,0.191 -28.964,0.332 -43.447,0.465c-15.779,0.154 -31.557,0.354 -47.336,0.548c-31.216,0.376 -62.432,0.709 -93.649,1.026c-25.567,0.261 -51.135,0.537 -76.702,0.824c-3.657,0.041 -7.314,0.082 -11.081,0.125c-7.455,0.084 -14.909,0.168 -22.364,0.252c-63.71,0.716 -127.42,1.396 -191.13,2.058c-82.04,0.853 -164.08,1.769 -246.119,2.727c-82.365,0.961 -164.729,1.891 -247.095,2.788c-9.533,0.104 -19.065,0.208 -28.598,0.312c-4.702,0.051 -9.404,0.103 -14.248,0.155c-33.234,0.365 -66.469,0.75 -99.703,1.143c-40.752,0.481 -81.505,0.932 -122.258,1.343c-20.97,0.213 -41.94,0.439 -62.909,0.704c-19.31,0.243 -38.62,0.446 -57.931,0.617c-7.011,0.069 -14.021,0.153 -21.032,0.253c-9.541,0.134 -19.08,0.214 -28.622,0.281c-7.963,0.087 -7.963,0.087 -16.087,0.177c-15.908,-0.983 -29.068,-3.773 -44.026,-9.252c-12.947,-18.036 -14.034,-33.576 -13.919,-55.377c-0.002,-2.93 -0.004,-5.859 -0.006,-8.878c0.009,-9.605 0.106,-19.207 0.204,-28.811c0.023,-6.69 0.041,-13.381 0.054,-20.071c0.048,-17.55 0.17,-35.098 0.309,-52.648c0.128,-17.931 0.185,-35.863 0.248,-53.795c0.134,-35.141 0.347,-70.28 0.61,-105.42l4.167,0c1.375,24.75 2.75,49.5 4.167,75c2.75,-13.75 5.5,-27.5 8.333,-41.667l4.167,0c1.375,88 2.75,176 4.167,266.667c327.595,1.183 655.129,-0.706 982.711,-3.624c26.574,-0.236 53.149,-0.467 79.723,-0.696c56.182,-0.484 112.364,-0.989 168.546,-1.516c18.983,-0.178 37.967,-0.349 56.951,-0.514c22.183,-0.193 44.365,-0.403 66.547,-0.626c8.018,-0.078 16.037,-0.15 24.055,-0.216c41.562,-0.346 83.058,-1.205 124.583,-3.042c3.802,-0.159 7.604,-0.318 11.522,-0.481c16.967,0.809 16.967,0.809 31.196,-5.952c0.46,-11.904 0.646,-23.71 0.659,-35.618c0.031,-5.671 0.031,-5.671 0.062,-11.457c0.064,-12.77 0.099,-25.54 0.134,-38.31c0.04,-9.114 0.082,-18.228 0.125,-27.341c0.113,-24.827 0.2,-49.654 0.283,-74.48c0.091,-25.914 0.205,-51.828 0.317,-77.742c0.185,-43.523 0.355,-87.045 0.514,-130.568c0.164,-44.836 0.337,-89.673 0.521,-134.509c0.017,-4.143 0.017,-4.143 0.034,-8.369c0.057,-13.855 0.114,-27.71 0.171,-41.565c0.475,-115.013 0.92,-230.026 1.345,-345.04l4.167,0l0,287.5l12.5,0l0,-383.333Z" style="fill:#191c1f;fill-rule:nonzero;"/><path d="M1505.208,2496.615c21.114,15.628 37.19,34.015 48.958,57.552c3.046,39.95 3.508,78.765 -22.51,111.523c-26.143,25.312 -66.061,40.774 -102.148,42.92c-32.172,-1.026 -59.948,-13.841 -82.552,-36.751c-22.334,-27.297 -33.304,-60.373 -31.689,-95.703c5.657,-38.352 26.408,-67.93 55.566,-92.822c43.986,-24.677 94.22,-13.127 134.375,13.281Z" style="fill:#090909;fill-rule:nonzero;"/><path d="M2077.1,2476.465c12.242,8.085 21.918,16.348 31.234,27.702c3.008,3.266 6.016,6.531 9.115,9.896c17.113,24.784 18.743,52.572 15.885,81.771c-4.958,24.092 -13.528,46.88 -33.333,62.5c-40.912,23.584 -73.373,33.583 -120.833,29.167c-28.368,-8.424 -51.517,-24.35 -66.667,-50c-17.122,-38.086 -18.034,-79.973 -4.574,-119.352c12.498,-26.819 32.457,-46.689 60.238,-57.178c40.028,-9.592 73.322,-4.653 108.936,15.495Z" style="fill:#0b0b0b;fill-rule:nonzero;"/><path d="M2623.389,2456.966c31.028,17.266 55.495,36.61 66.504,71.436c5.701,29.237 6.948,62.835 -8.887,88.932c-28.067,35.826 -60.554,52.939 -105.42,59.375c-32.395,1.784 -58.978,-7.792 -83.301,-29.395c-22.619,-24.681 -32.394,-52.448 -34.993,-85.596c2.319,-35.367 13.277,-65.508 38.542,-90.885c38.815,-29.552 82.704,-34.379 127.555,-13.867Z" style="fill:#0b0b0b;fill-rule:nonzero;"/><path d="M2437.5,625c66.789,-0.195 133.578,-0.342 200.368,-0.432c31.014,-0.043 62.027,-0.101 93.04,-0.197c27.041,-0.083 54.081,-0.137 81.122,-0.155c14.309,-0.011 28.618,-0.036 42.928,-0.097c15.999,-0.061 31.997,-0.069 47.996,-0.065c4.711,-0.03 9.423,-0.06 14.277,-0.091c59.163,0.154 59.163,0.154 82.509,19.526c11.326,14.071 13.281,24.119 13.285,41.622c0.011,3.796 0.022,7.592 0.033,11.503c-0.009,4.176 -0.019,8.352 -0.028,12.654c0.006,4.432 0.013,8.863 0.02,13.429c0.017,14.923 0.003,29.845 -0.01,44.768c0.006,10.668 0.013,21.336 0.022,32.005c0.017,26.01 0.015,52.02 0.002,78.03c-0.009,21.129 -0.011,42.258 -0.006,63.387c0.001,3.004 0.001,6.007 0.002,9.102c0.001,6.101 0.003,12.203 0.004,18.304c0.012,57.243 -0.002,114.486 -0.024,171.73c-0.019,49.166 -0.015,98.332 0.004,147.499c0.022,57.047 0.031,114.094 0.018,171.142c-0.001,6.077 -0.003,12.154 -0.004,18.23c-0.001,2.99 -0.001,5.98 -0.002,9.061c-0.004,21.119 0.002,42.238 0.012,63.357c0.013,28.392 0.004,56.784 -0.02,85.177c-0.006,10.453 -0.004,20.906 0.005,31.359c0.011,14.203 -0.003,28.405 -0.024,42.607c0.009,4.195 0.019,8.389 0.028,12.711c-0.011,3.774 -0.022,7.549 -0.033,11.437c-0.001,3.283 -0.001,6.565 -0.002,9.947c-0.522,7.449 -0.522,7.449 -4.689,11.616c-0.655,6.802 -1.045,13.631 -1.318,20.459c-0.262,6.183 -0.262,6.183 -0.529,12.492c-0.164,4.337 -0.328,8.674 -0.496,13.143c-0.27,6.53 -0.27,6.53 -0.545,13.192c-0.444,10.793 -0.869,21.587 -1.278,32.381l-8.333,0c-0.002,-2.44 -0.005,-4.88 -0.008,-7.394c-0.15,-144.604 -0.386,-289.208 -0.734,-433.811c-0.042,-17.362 -0.083,-34.724 -0.123,-52.086c-0.008,-3.456 -0.016,-6.913 -0.025,-10.474c-0.129,-55.97 -0.2,-111.939 -0.249,-167.909c-0.052,-57.429 -0.166,-114.857 -0.339,-172.285c-0.105,-35.438 -0.16,-70.874 -0.153,-106.312c0,-24.3 -0.061,-48.599 -0.17,-72.898c-0.061,-14.021 -0.086,-28.039 -0.057,-42.06c0.028,-15.208 -0.047,-30.413 -0.147,-45.621c0.032,-4.422 0.065,-8.844 0.098,-13.4c-0.302,-25.879 -2.815,-42.539 -18.927,-63.249c-8.012,-4.394 -8.012,-4.394 -16.667,-4.167c-2.826,-0.208 -5.651,-0.417 -8.562,-0.631c-3.061,-0.052 -6.122,-0.104 -9.276,-0.158c-5.305,-0.105 -5.305,-0.105 -10.717,-0.212c-5.772,-0.085 -5.772,-0.085 -11.661,-0.171c-4.082,-0.075 -8.163,-0.15 -12.369,-0.228c-13.537,-0.245 -27.074,-0.464 -40.612,-0.684c-9.472,-0.169 -18.944,-0.34 -28.416,-0.513c-25.022,-0.453 -50.043,-0.885 -75.065,-1.31c-39.776,-0.677 -79.552,-1.374 -119.328,-2.092c-13.767,-0.244 -27.533,-0.472 -41.3,-0.699c-55.957,-0.969 -111.8,-2.95 -167.693,-5.802c1.375,-5.5 2.75,-11 4.167,-16.667Z" style="fill:#080909;fill-rule:nonzero;"/><path d="M1202.604,2491.406c7.037,0.021 14.073,0.04 21.11,0.057c17.095,0.046 34.191,0.117 51.286,0.203c0.92,22.456 0.058,37.368 -9.912,57.943c-2.109,4.445 -4.218,8.889 -6.39,13.468c-2.269,4.622 -4.537,9.244 -6.875,14.006c-4.601,9.633 -9.196,19.268 -13.786,28.906c-2.239,4.662 -4.478,9.324 -6.785,14.128c-9.5,20.082 -18.271,40.456 -26.85,60.946c-4.701,11.03 -8.325,18.694 -16.902,27.271c-12.061,0.179 -12.061,0.179 -25,-4.167c-6.581,-9.535 -10.849,-17.388 -15.365,-27.865c-2.793,-6.025 -5.593,-12.047 -8.398,-18.066c-1.501,-3.291 -3.002,-6.582 -4.549,-9.973c-9.438,-20.23 -19.677,-40.067 -29.761,-59.981c-3.955,-7.834 -7.9,-15.674 -11.833,-23.519c-1.686,-3.351 -3.372,-6.701 -5.11,-10.153c-9.085,-19.205 -8.992,-33.725 -8.318,-54.609c20.011,-20.011 95.612,-8.738 123.438,-8.594Z" style="fill:#050505;fill-rule:nonzero;"/><path d="M1904.167,1287.5l100,0l0,16.667l12.5,0l0,16.667l8.333,0l0,95.833l-8.333,0l0,16.667l-16.667,0c-1.375,9.625 -2.75,19.25 -4.167,29.167l8.333,0l0,20.833l12.5,0l0,20.833l8.333,0l0,37.5l-25,0l0,-16.667l-12.5,0l0,-20.833l-8.333,0l0,-16.667l-12.5,0l0,-20.833l-12.5,0l0,-16.667l-25,0l0,91.667l-25,0l0,-254.167Z" style="fill:#080a0d;fill-rule:nonzero;"/><path d="M2779.167,2466.667c9.576,0.365 9.576,0.365 20.833,4.167c5.678,9.386 9.557,17.383 13.444,27.49c1.143,2.782 2.286,5.564 3.464,8.43c3.643,8.917 7.169,17.876 10.696,26.84c2.401,5.925 4.81,11.847 7.227,17.765c5.514,13.577 11.007,27.158 16.259,40.839c2.084,5.285 4.297,10.522 6.624,15.705c10.74,25.102 8.953,36.619 8.953,67.097l-162.5,0c0,-37.503 0,-37.503 5.539,-50.939c1.211,-3.017 2.422,-6.034 3.67,-9.142c1.328,-3.135 2.656,-6.27 4.024,-9.499c1.358,-3.325 2.715,-6.651 4.114,-10.077c2.863,-6.982 5.753,-13.954 8.67,-20.914c4.449,-10.618 8.816,-21.267 13.168,-31.924c2.803,-6.808 5.61,-13.614 8.423,-20.418c1.954,-4.74 1.954,-4.74 3.947,-9.576c6.764,-16.106 13.947,-31.104 23.445,-45.844Z" style="fill:#060707;fill-rule:nonzero;"/><path d="M2287.5,1287.5l25,0l0,16.667l12.5,0l0,33.333l12.5,0l0,20.833l12.5,0c1.375,11 2.75,22 4.167,33.333l8.333,0c7.143,-7.143 5.127,-16.685 5.485,-26.449c0.175,-4.498 0.349,-8.997 0.529,-13.631c0.164,-4.735 0.328,-9.469 0.496,-14.347c0.27,-7.126 0.27,-7.126 0.545,-14.396c0.444,-11.781 0.869,-23.562 1.278,-35.343l33.333,0l0,254.167l-25,0l0,-16.667c-6.188,-2.062 -6.188,-2.062 -12.5,-4.167l0,-29.167c-6.188,-2.062 -6.188,-2.062 -12.5,-4.167l0,-20.833l-12.5,0l0,-33.333l-8.333,0l0,-33.333l-12.5,0l0,-37.5l-8.333,0l0,179.167l-25,0l0,-254.167Z" style="fill:#0a0d11;fill-rule:nonzero;"/><path d="M1500.781,2519.271c19.277,16.278 31.068,33.831 33.838,59.147c1.139,29.2 -0.584,48.978 -18.896,72.363c-15.184,15.519 -28.894,22.8 -50.618,26.823c-27.243,-4.697 -45.784,-19.453 -63.281,-40.365c-11.479,-23.751 -10.64,-54.944 -3.239,-79.818c9.392,-18.54 25.021,-31.17 43.083,-40.755c21.084,-6.44 39.107,-7.596 59.115,2.604Z" style="fill:#353532;fill-rule:nonzero;"/><path d="M2083.333,1283.333l79.167,0l0,20.833l8.333,0l0,41.667l-25,0l0,-20.833l-50,0l0,16.667l-8.333,0l0,20.833l-8.333,0l0,100l8.333,0l0,16.667c4.125,1.375 8.25,2.75 12.5,4.167l0,16.667l45.833,0l0,-66.667l-33.333,0l0,-41.667l58.333,0l0,150l-87.5,0l0,-16.667l-8.333,0l0,-16.667l-12.5,0l0,-37.5l-12.5,0l0,-112.5l12.5,0l0,-37.5l12.5,0c0.902,-4.641 0.902,-4.641 1.823,-9.375c1.928,-9.428 4.177,-18.789 6.51,-28.125Z" style="fill:#0c0f13;fill-rule:nonzero;"/><path d="M2062.5,2495.833c21.881,11.063 37.786,26.557 47.38,49.186c7.547,26.345 5.052,48.373 -6.234,73.21c-9.768,17.354 -18.162,27.977 -36.979,35.938c-24.431,3.796 -45.485,0.689 -66.667,-12.5c-19.396,-19.181 -26.729,-37.677 -27.865,-64.844c1.243,-24.739 6.576,-42.054 23.698,-60.156c21.72,-16.942 38.998,-24.008 66.667,-20.833Z" style="fill:#343431;fill-rule:nonzero;"/><path d="M2458.333,1287.5l70.833,0l0,16.667l12.5,0l0,41.667l-25,0l0,-16.667l-45.833,0l0,16.667l-8.333,0l0,16.667l-12.5,0l0,104.167l12.5,0l0,16.667l12.5,0l0,12.5c13.75,1.375 27.5,2.75 41.667,4.167l0,-66.667l-33.333,0l0,-37.5c9.635,-0.112 19.271,-0.193 28.906,-0.26c5.366,-0.048 10.731,-0.097 16.26,-0.146c13.167,0.407 13.167,0.407 17.334,4.574c0.42,10.153 0.582,20.184 0.553,30.339c0.006,4.554 0.006,4.554 0.012,9.201c0.003,6.431 -0.005,12.862 -0.022,19.293c-0.022,9.876 -0,19.752 0.026,29.628c-0.003,6.234 -0.008,12.467 -0.016,18.701c0.008,2.973 0.017,5.946 0.026,9.009c-0.1,20.85 -0.1,20.85 -4.746,25.496c-6.203,0.361 -12.423,0.446 -18.636,0.407c-3.746,-0.013 -7.493,-0.027 -11.353,-0.041c-5.91,-0.052 -5.91,-0.052 -11.938,-0.106c-3.956,-0.019 -7.912,-0.038 -11.987,-0.057c-9.807,-0.049 -19.613,-0.118 -29.419,-0.203l0,-16.667l-8.333,0l0,-16.667l-16.667,0c-0.949,-8.545 -1.899,-17.09 -2.848,-25.635c-0.564,-7.746 -0.564,-7.746 -5.485,-11.865c-0.365,-8.332 -0.446,-16.677 -0.407,-25.016c0.013,-5.062 0.027,-10.125 0.041,-15.34c0.035,-5.331 0.07,-10.662 0.106,-16.154c0.019,-5.347 0.038,-10.694 0.057,-16.203c0.049,-13.262 0.118,-26.525 0.203,-39.787l12.5,0l0,-33.333l12.5,0l0,-20.833l8.333,0l0,-16.667Z" style="fill:#070b0e;fill-rule:nonzero;"/><path d="M1612.5,1287.5l25,0l0,104.167l70.833,0l0,-104.167l29.167,0l0,254.167l-29.167,0l0,-104.167l-70.833,0l0,108.333l-25,0l0,-258.333Z" style="fill:#0d1013;fill-rule:nonzero;"/><path d="M2629.004,2485.938c20.689,10.119 34.11,25.774 41.829,47.396c4.078,28.656 3.426,55.601 -11.621,80.892c-10.799,14.143 -21.647,21.864 -38.379,27.441c-22.793,1.753 -38.24,-1.505 -58.333,-12.5c-17.927,-18.412 -26.175,-37.658 -27.083,-63.281c0.562,-31.994 16.164,-53.49 36.719,-76.823c18.725,-9.58 36.897,-9.49 56.868,-3.125Z" style="fill:#353532;fill-rule:nonzero;"/><path d="M1808.333,1287.5l25,0l0,33.333c4.125,1.375 8.25,2.75 12.5,4.167l0,50l12.5,0l0,54.167l12.5,0l0,54.167l8.333,0l0,58.333l-25,0l0,-54.167l-70.833,0l0,54.167l-25,0l0,-58.333l12.5,0l0,-54.167l12.5,0l0,-54.167l12.5,0l0,-54.167l12.5,0l0,-33.333Z" style="fill:#080c10;fill-rule:nonzero;"/><path d="M1500,1287.5l62.5,0l0,12.5l12.5,0l0,20.833l12.5,0l0,41.667l-25,0l0,-12.5l-8.333,0l0,-20.833l-41.667,0l0,16.667l-12.5,0l0,20.833l-8.333,0l0,100l8.333,0l0,20.833l12.5,0l0,12.5l37.5,0l0,-16.667l12.5,0l0,-16.667l25,0l0,41.667l-12.5,0l0,20.833l-12.5,0l0,16.667l-62.5,0l0,-16.667l-12.5,0l0,-20.833l-12.5,0l0,-33.333l-12.5,0l0,-116.667l12.5,0l0,-33.333l12.5,0l0,-20.833l12.5,0l0,-16.667Z" style="fill:#0b0e11;fill-rule:nonzero;"/><path d="M1204.167,920.833l4.167,0c0.195,114.813 0.342,229.625 0.432,344.438c0.043,53.308 0.102,106.616 0.197,159.923c0.083,46.455 0.137,92.911 0.155,139.366c0.011,24.605 0.036,49.209 0.097,73.814c0.056,23.149 0.074,46.299 0.061,69.448c0.002,8.504 0.019,17.008 0.051,25.513c0.041,11.598 0.032,23.194 0.009,34.792c0.024,3.376 0.049,6.753 0.074,10.231c-0.092,17.382 -1.553,31.015 -9.409,46.642l-4.167,0c-0.097,-108.732 -0.171,-217.464 -0.216,-326.197c-0.021,-50.49 -0.051,-100.98 -0.098,-151.47c-0.042,-44.025 -0.068,-88.05 -0.078,-132.075c-0.005,-23.295 -0.018,-46.589 -0.049,-69.884c-0.028,-21.963 -0.037,-43.926 -0.031,-65.888c-0.001,-8.025 -0.009,-16.05 -0.025,-24.075c-0.176,-92.423 -0.176,-92.423 4.663,-130.411c1.375,-1.375 2.75,-2.75 4.167,-4.167Z" style="fill:#030507;fill-rule:nonzero;"/><path d="M2195.833,1287.5l66.667,0l0,37.5l-20.833,0l0,175l20.833,0l0,41.667l-66.667,0l0,-41.667l20.833,0l0,-175l-20.833,0l0,-37.5Z" style="fill:#05080c;fill-rule:nonzero;"/><path d="M1429.167,2500c-1.66,1.864 -3.319,3.728 -5.029,5.648c-31.037,35.417 -39.045,60.727 -38.102,108.04c2.724,28.786 17.8,46.665 38.965,65.479c-19.683,2.46 -30.239,0.906 -46.615,-10.677c-19.746,-16.187 -31.755,-34.832 -36.719,-60.156c-2.205,-25.623 -4.212,-50.792 10.775,-72.786c22.998,-24.904 43.055,-36.17 76.725,-35.547Z" style="fill:#343432;fill-rule:nonzero;"/><path d="M2004.167,2487.5c-1.66,2.068 -3.319,4.136 -5.029,6.266c-23.213,29.764 -35.36,54.46 -34.538,92.855c4.376,28.326 19.715,52.351 35.4,75.879c-15.651,1.491 -23.914,0.565 -38.021,-6.771c-23.559,-19.462 -34.97,-42.848 -38.525,-73.014c-0.625,-30.365 1.128,-51.684 22.38,-74.382c18.446,-17.877 31.978,-23.523 58.333,-20.833Z" style="fill:#343532;fill-rule:nonzero;"/><path d="M2570.833,2470.833c-1.611,2.02 -3.223,4.039 -4.883,6.12c-25.023,32.208 -39.823,55.979 -38.444,97.884c3.4,25.935 15.016,47.918 26.66,70.996c-22.016,-1.727 -34.629,-4.632 -50,-20.833c-20.072,-26.631 -19.817,-55.306 -16.667,-87.5c4.263,-27.074 19.225,-43.083 39.876,-60.417c15.534,-9.59 25.665,-8.838 43.457,-6.25Z" style="fill:#363633;fill-rule:nonzero;"/><path d="M1933.333,1320.833l54.167,0l0,16.667l12.5,0l0,58.333l-12.5,0l0,16.667l-54.167,0l0,-91.667Z" style="fill:#c6dae7;fill-rule:nonzero;"/><path d="M2370.833,1287.5l8.333,0l0,179.167l-8.333,0l0,-33.333l-8.333,0c-0.112,-6.857 -0.193,-13.715 -0.26,-20.573c-0.048,-3.819 -0.097,-7.638 -0.146,-11.572c0.407,-9.521 0.407,-9.521 4.574,-13.688c0.657,-7.411 1.046,-14.847 1.318,-22.282c0.175,-4.498 0.349,-8.997 0.529,-13.631c0.164,-4.735 0.328,-9.469 0.496,-14.347c0.18,-4.751 0.36,-9.501 0.545,-14.396c0.444,-11.781 0.869,-23.562 1.278,-35.343Z" style="fill:#d6e5f0;fill-rule:nonzero;"/><rect x="2325" y="858.333" width="104.167" height="16.667" style="fill:#030508;fill-rule:nonzero;"/><path d="M1812.5,1379.167l16.667,0l0,50l12.5,0l0,20.833l-41.667,0l0,-20.833l12.5,0l0,-50Z" style="fill:#bccdd8;fill-rule:nonzero;"/><path d="M512.5,75l91.667,0l0,8.333c-19.269,4.904 -37.828,4.642 -57.552,4.427c-4.927,-0.028 -4.927,-0.028 -9.953,-0.057c-8.054,-0.049 -16.108,-0.124 -24.162,-0.203l0,-12.5Z" style="fill:#7ea181;fill-rule:nonzero;"/></svg>